<?xml version="1.0" encoding="UTF-8" standalone="no"?>
<!-- Created with Inkscape (http://www.inkscape.org/) -->

<svg
   xmlns:dc="http://purl.org/dc/elements/1.1/"
   xmlns:cc="http://creativecommons.org/ns#"
   xmlns:rdf="http://www.w3.org/1999/02/22-rdf-syntax-ns#"
   xmlns:svg="http://www.w3.org/2000/svg"
   xmlns="http://www.w3.org/2000/svg"
   xmlns:sodipodi="http://sodipodi.sourceforge.net/DTD/sodipodi-0.dtd"
   xmlns:inkscape="http://www.inkscape.org/namespaces/inkscape"
   width="210mm"
   height="297mm"
   viewBox="0 0 210 297"
   version="1.1"
   id="svg8"
   inkscape:version="0.92.3 (2405546, 2018-03-11)"
   sodipodi:docname="drawing.svg">
  <defs
     id="defs2" />
  <sodipodi:namedview
     id="base"
     pagecolor="#ffffff"
     bordercolor="#666666"
     borderopacity="1.0"
     inkscape:pageopacity="0.0"
     inkscape:pageshadow="2"
     inkscape:zoom="0.35"
     inkscape:cx="400"
     inkscape:cy="560"
     inkscape:document-units="mm"
     inkscape:current-layer="layer1"
     showgrid="false"
     inkscape:window-width="1440"
     inkscape:window-height="838"
     inkscape:window-x="-8"
     inkscape:window-y="-8"
     inkscape:window-maximized="1" />
  <metadata
     id="metadata5">
    <rdf:RDF>
      <cc:Work
         rdf:about="">
        <dc:format>image/svg+xml</dc:format>
        <dc:type
           rdf:resource="http://purl.org/dc/dcmitype/StillImage" />
        <dc:title></dc:title>
      </cc:Work>
    </rdf:RDF>
  </metadata>
  <g
     inkscape:label="Layer 1"
     inkscape:groupmode="layer"
     id="layer1">
    <g
       id="g21"
       transform="matrix(0.25000002,0,0,0.25,68.980652,114.08185)">
      <path
         style="fill:#fefefe;stroke-width:0.26458332"
         d="M 46.415482,145.05357 V 77.320236 h 67.733328 67.73333 V 145.05357 212.7869 H 114.14881 46.415482 Z"
         id="path37"
         inkscape:connector-curvature="0" />
      <path
         style="fill:#d0d0d0;stroke-width:0.26458332"
         d="m 144.25454,211.84745 c -13.14384,-2.04661 -23.65413,-12.84216 -25.62491,-26.3204 -0.42807,-2.92762 -0.16999,-8.44787 0.52774,-11.28821 3.18474,-12.96446 13.92257,-22.28472 27.23412,-23.63877 9.28757,-0.94473 18.89633,2.71869 25.40178,9.68466 3.42266,3.66495 6.05525,8.39928 7.37922,13.27045 0.65307,2.4028 0.70261,2.96357 0.69602,7.87859 -0.006,4.56805 -0.084,5.57019 -0.56989,7.32845 -1.63351,5.91169 -4.37234,10.63914 -8.47561,14.62961 -2.6157,2.54378 -4.60493,3.95279 -7.85858,5.56634 -5.98255,2.96689 -12.12233,3.91503 -18.70989,2.88928 z m 11.30156,-9.10853 c 6.53723,-2.07828 12.05273,-7.1387 14.39193,-13.20444 2.23105,-5.78531 2.03597,-11.9033 -0.56027,-17.57045 -0.49334,-1.07689 -0.96414,-1.76596 -1.17502,-1.71979 -0.45534,0.0997 -31.83893,28.72066 -31.83893,29.03622 0,0.73735 5.18764,3.14658 8.33438,3.87062 2.46931,0.56817 8.48299,0.33968 10.84791,-0.41216 z m -9.16232,-24.71241 c 12.52304,-11.42313 15.85556,-14.59481 15.62581,-14.87164 -0.5182,-0.6244 -5.61343,-2.96582 -7.52182,-3.45652 -2.56251,-0.65889 -8.0289,-0.6577 -10.58333,0.002 -2.74765,0.70994 -6.85957,2.81943 -9.01903,4.62692 -7.5808,6.34522 -9.99666,17.33298 -5.80547,26.40427 0.50693,1.09718 1.02616,1.95427 1.15384,1.90464 0.12768,-0.0496 7.39518,-6.62411 16.15,-14.60998 z m -94.55434,26.06335 c -2.268628,-1.40899 -2.677601,-2.70016 -2.262361,-7.14249 1.537698,-16.4506 9.464964,-30.9026 22.384463,-40.80856 3.669148,-2.8133 9.551719,-6.15247 13.593068,-7.71595 0.644282,-0.24925 1.120531,-0.50131 1.058333,-0.56013 -0.0622,-0.0588 -1.244182,-0.85634 -2.62663,-1.77227 -3.22903,-2.13938 -8.09295,-6.96704 -10.135485,-10.05995 -2.942097,-4.45506 -4.92249,-9.20161 -5.919993,-14.18887 -0.704735,-3.52349 -0.631244,-10.43403 0.149766,-14.08286 1.588821,-7.42287 5.03387,-13.730473 10.481754,-19.191224 5.182561,-5.1948 11.95301,-8.871225 18.972699,-10.302375 1.494242,-0.304641 3.615936,-0.415687 7.937496,-0.415436 5.3475,3.1e-4 6.1469,0.06061 8.56278,0.645916 12.86546,3.116961 23.1155,12.468627 27.23285,24.845999 1.55053,4.66112 1.85391,6.63042 1.8404,11.94628 -0.0106,4.18452 -0.0961,5.11883 -0.70399,7.69863 -1.30085,5.52027 -3.61476,10.43611 -6.98344,14.83617 -1.92429,2.51343 -6.13562,6.51828 -8.54722,8.12814 l -1.93872,1.2942 0.77825,0.32723 c 0.42804,0.17998 1.4392,0.51937 2.24702,0.75421 3.65456,1.06241 4.80249,4.90542 2.23285,7.47507 -1.62745,1.62745 -2.62289,1.70461 -6.68719,0.51834 -5.66435,-1.65329 -7.34,-1.85752 -15.31045,-1.86603 -7.67619,-0.008 -8.934645,0.12324 -14.095285,1.47211 -8.114672,2.121 -14.838965,5.99374 -20.837653,12.00109 -4.149816,4.15582 -6.397801,7.25205 -8.845883,12.18376 -2.919656,5.8817 -4.472998,11.52972 -4.999838,18.17965 -0.297036,3.74927 -0.714048,4.60222 -2.744796,5.61418 -1.678064,0.83622 -3.662132,0.91224 -4.832795,0.18517 z m 59.7419,-61.15629 c 11.16862,-2.43643 20.04712,-11.70238 22.02287,-22.98393 2.5465,-14.54052 -6.19055,-28.587753 -20.32932,-32.685009 -10.10548,-2.928452 -20.947997,-0.106804 -28.362535,7.381044 -3.604141,3.639775 -6.128914,8.047085 -7.474222,13.047185 -0.620707,2.30699 -0.690933,3.03862 -0.690933,7.19821 0,4.15959 0.07023,4.89122 0.690933,7.1982 3.105859,11.54354 12.66681,19.87767 24.535477,21.38718 2.41938,0.30771 6.85841,0.0569 9.60773,-0.54288 z"
         id="path35"
         inkscape:connector-curvature="0" />
      <path
         style="fill:#afafaf;stroke-width:0.26458332"
         d="m 143.86956,211.60121 c -11.66098,-2.11577 -21.32812,-11.07295 -24.34105,-22.55343 -0.8334,-3.17558 -1.12456,-8.88352 -0.6268,-12.28773 1.66362,-11.37754 10.07046,-21.17542 21.17627,-24.6802 11.98729,-3.78297 25.30159,0.28395 33.11611,10.11547 9.99379,12.5733 8.76582,30.29749 -2.86527,41.35641 -4.51873,4.29644 -9.81852,6.98864 -15.81674,8.03465 -2.79588,0.48756 -7.99712,0.49481 -10.64252,0.0148 z m 11.02508,-8.48069 c 7.33628,-1.92828 13.20565,-7.40904 15.58865,-14.55652 1.54132,-4.62295 1.58689,-9.59445 0.1289,-14.06088 -0.79933,-2.44868 -1.86721,-4.57913 -2.2944,-4.57741 -0.25144,0.001 -23.85867,21.31913 -30.98834,27.98351 -1.58803,1.4844 -1.52314,1.63979 1.32168,3.165 2.30098,1.23364 3.67839,1.74853 6.21924,2.32483 2.19622,0.49813 7.64545,0.34672 10.02427,-0.27853 z m -8.32845,-24.97559 16.07692,-14.66594 -0.76538,-0.6262 c -1.21746,-0.99608 -4.84141,-2.66302 -7.12966,-3.2795 -2.96922,-0.79993 -8.11472,-0.79993 -11.08394,0 -6.99359,1.88415 -12.61552,6.82786 -15.25194,13.412 -2.03962,5.0937 -2.0875,11.16773 -0.12896,16.36007 0.76409,2.02572 1.69003,3.66442 2.0025,3.54396 0.11195,-0.0432 7.43815,-6.67813 16.28046,-14.74439 z m -94.861732,25.57999 c -2.038211,-1.3872 -2.404727,-2.8901 -1.865282,-7.64863 1.438651,-12.69059 6.437289,-23.7653 14.977373,-33.18307 4.95534,-5.46461 12.419561,-10.72383 19.368202,-13.64665 1.491588,-0.62741 2.711979,-1.21056 2.711979,-1.29589 0,-0.0853 -1.220391,-0.97375 -2.711979,-1.97426 -3.481959,-2.3356 -7.966355,-6.79382 -10.19847,-10.13896 -2.796448,-4.19087 -4.717309,-8.70475 -5.787153,-13.5994 -0.682384,-3.12196 -0.676612,-11.06788 0.01032,-14.21545 2.971053,-13.613437 12.682207,-24.429904 25.639585,-28.55785 4.349302,-1.385596 6.776997,-1.683269 12.626857,-1.548253 4.54943,0.105002 5.48485,0.204983 7.91248,0.845724 11.30367,2.983454 20.04037,10.169528 25.03294,20.589998 2.70906,5.654321 3.7191,10.613441 3.4867,17.119091 -0.26212,7.33753 -2.0685,12.93508 -6.18787,19.17475 -2.11543,3.20429 -7.25777,8.40874 -10.07949,10.20125 -1.03084,0.65484 -1.84438,1.30337 -1.80786,1.44118 0.0365,0.1378 1.04716,0.56947 2.24588,0.95926 3.06411,0.99637 4.26805,2.25973 4.26805,4.47872 0,1.31596 -0.50503,2.35585 -1.58579,3.26525 -1.23591,1.03995 -2.39906,1.14237 -5.01632,0.44171 -1.24379,-0.33297 -3.05805,-0.81984 -4.0317,-1.08192 -2.84886,-0.76684 -5.31506,-1.04798 -10.67912,-1.21738 -5.76129,-0.18195 -9.56573,0.12537 -14.120428,1.14063 -20.063141,4.47217 -34.551385,20.98184 -36.539119,41.63713 -0.434381,4.51381 -0.477657,4.69204 -1.392162,5.73361 -1.061716,1.20922 -2.167515,1.67472 -3.978354,1.67472 -1.041783,0 -1.659616,-0.15996 -2.299274,-0.59531 z M 110.64299,143.3306 c 10.2408,-1.94265 18.71266,-9.24443 22.01537,-18.97473 1.27136,-3.74562 1.46442,-5.05152 1.43834,-9.72939 -0.0214,-3.83477 -0.10961,-4.68659 -0.72566,-7.00524 -5.41148,-20.367583 -29.74513,-28.391737 -46.271988,-15.258447 -4.835078,3.84226 -8.187489,9.118687 -9.93035,15.629587 -0.599659,2.24018 -0.677402,3.03783 -0.672369,6.89869 0.005,3.82334 0.08921,4.68027 0.678061,6.89868 0.945419,3.56175 2.085551,6.15409 3.966204,9.01804 4.224576,6.43338 11.024515,11.00221 18.62162,12.51173 2.512622,0.49925 8.276422,0.50512 10.880772,0.0111 z"
         id="path33"
         inkscape:connector-curvature="0" />
      <path
         style="fill:#8f8f8f;stroke-width:0.26458332"
         d="m 146.29569,211.82666 c -4.98793,-0.53975 -10.1946,-2.44016 -14.2875,-5.21489 -2.26704,-1.5369 -6.22231,-5.44981 -7.75329,-7.67023 -9.47759,-13.74567 -6.5758,-32.02082 6.67528,-42.04012 2.69012,-2.03403 7.23712,-4.24053 10.63263,-5.15963 2.39899,-0.64937 3.03359,-0.70877 7.64329,-0.71538 5.61413,-0.008 7.31247,0.29471 11.70993,2.08753 6.97716,2.84456 13.46711,9.21169 16.38148,16.07147 2.962,6.97189 3.26967,15.22173 0.82613,22.15198 -3.63032,10.29617 -12.08533,17.69912 -22.83438,19.9931 -1.91471,0.40862 -7.13905,0.69685 -8.99357,0.49617 z m 8.58372,-8.59282 c 7.82453,-1.99379 14.12319,-8.28315 16.26786,-16.24382 0.6227,-2.31134 0.82329,-6.57743 0.42533,-9.04562 -0.50086,-3.10634 -2.52257,-8.28459 -3.2345,-8.28459 -0.29445,0 -32.49346,29.35884 -32.49346,29.62732 0,0.27394 1.69357,1.37232 3.59917,2.33426 4.62135,2.33285 10.28612,2.92461 15.4356,1.61245 z m -8.41115,-24.84351 c 8.78185,-8.00404 16.00412,-14.72387 16.04947,-14.93294 0.12418,-0.57245 -3.65395,-2.67267 -6.56475,-3.64928 -2.41016,-0.80863 -2.68767,-0.84325 -6.74688,-0.84156 -3.9336,0.002 -4.39257,0.0546 -6.48229,0.74815 -4.23563,1.40573 -6.91161,3.10116 -9.96008,6.3104 -2.73117,2.87522 -4.43599,6.02109 -5.5543,10.2493 -0.62279,2.35473 -0.62298,7.69825 -2.6e-4,10.05416 0.81064,3.06732 2.39668,6.61459 2.95747,6.61459 0.18408,0 7.51985,-6.54877 16.3017,-14.55282 z m -94.536796,25.41304 c -0.53147,-0.29016 -1.232547,-0.95834 -1.557949,-1.48486 -0.557527,-0.90209 -0.583058,-1.15802 -0.442809,-4.43872 0.443017,-10.36307 4.485272,-21.3557 11.129687,-30.26642 2.652746,-3.55755 7.94719,-8.87736 11.386303,-11.44085 3.433308,-2.55917 8.351272,-5.4065 11.878872,-6.87747 1.55966,-0.65036 2.835745,-1.2531 2.835745,-1.33944 0,-0.0863 -1.101328,-0.88317 -2.447395,-1.77075 -6.568056,-4.33092 -11.653353,-10.53714 -14.494587,-17.68953 -1.820962,-4.584 -2.853545,-10.87685 -2.513139,-15.31578 0.74553,-9.72179 4.331535,-17.584105 11.110126,-24.358945 5.40703,-5.40404 11.569549,-8.729974 19.192911,-10.358486 3.186011,-0.680599 11.366071,-0.680599 14.552081,0 7.27839,1.554819 13.4815,4.80278 18.69922,9.790961 5.62838,5.380759 9.30198,12.01922 10.97979,19.84126 0.82208,3.83257 0.82208,10.29005 0,14.12262 -2.04132,9.51675 -7.36972,17.64174 -15.21081,23.19418 -1.408,0.99703 -2.50842,1.89623 -2.44539,1.99821 0.063,0.10199 1.14678,0.52841 2.40833,0.94762 2.58922,0.86036 3.64057,1.70782 4.12512,3.32507 0.6192,2.06674 -0.78883,4.43237 -2.99113,5.02538 -0.94926,0.25562 -1.4534,0.18092 -4.28558,-0.63495 -1.76536,-0.50855 -4.22179,-1.11604 -5.45871,-1.34998 -4.89849,-0.92642 -15.00426,-1.00248 -19.868887,-0.14953 -21.87069,3.83474 -37.474515,21.00764 -39.386813,43.34744 -0.159773,1.8665 -0.450758,3.58992 -0.681449,4.03603 -1.015671,1.96409 -4.492965,2.95009 -6.513537,1.84694 z M 109.71745,143.6032 c 14.17458,-2.13658 24.61247,-14.3131 24.61247,-28.71213 0,-13.45085 -8.73995,-24.678523 -21.98833,-28.247072 -2.29012,-0.616858 -3.03008,-0.68848 -7.05632,-0.682988 -3.99465,0.0054 -4.78632,0.0831 -7.075537,0.693999 -10.435788,2.784897 -18.162864,10.428448 -21.055323,20.827721 -0.635794,2.28587 -0.699461,2.94492 -0.702906,7.27605 -0.0032,4.04388 0.08388,5.10653 0.577213,7.04249 1.296897,5.08938 3.687717,9.34949 7.432333,13.24338 6.607352,6.87076 15.79615,9.98453 25.2564,8.55855 z"
         id="path31"
         inkscape:connector-curvature="0" />
      <path
         style="fill:#6f6f6f;stroke-width:0.26458332"
         d="m 143.12069,211.20572 c -12.2167,-2.64308 -21.27604,-11.85711 -23.80917,-24.2157 -0.62997,-3.0735 -0.57986,-8.29571 0.11218,-11.69164 3.16911,-15.55108 17.85191,-26.14088 33.51151,-24.1698 13.14618,1.65472 23.40454,11.18584 26.21017,24.35207 0.64955,3.04819 0.63992,8.80721 -0.0199,11.90625 -2.45958,11.5519 -10.93409,20.45818 -22.33388,23.47177 -3.57683,0.94555 -10.13503,1.11204 -13.6709,0.34705 z m 9.65729,-7.42541 c 9.26185,-1.46127 16.75137,-8.59714 18.69568,-17.81288 0.53762,-2.54825 0.51267,-6.94983 -0.0534,-9.41533 -0.51131,-2.22706 -2.0864,-6.17241 -2.6514,-6.64131 -0.20556,-0.1706 -0.52408,-0.25076 -0.70784,-0.17813 -0.56805,0.2245 -32.07909,29.05031 -32.1649,29.42395 -0.15479,0.67403 3.19577,2.68524 6.16622,3.70133 3.26563,1.11707 7.2874,1.46325 10.71563,0.92237 z m -6.70026,-24.89941 c 8.56009,-7.807 15.84362,-14.49488 16.18563,-14.86195 l 0.62183,-0.6674 -1.151,-0.8392 c -3.94411,-2.8757 -9.88114,-4.34114 -15.0154,-3.70627 -9.31921,1.15236 -16.77906,7.49493 -19.3564,16.45734 -0.80241,2.7903 -0.97952,7.39511 -0.39566,10.28686 0.67776,3.35681 2.63792,7.85389 3.31639,7.60861 0.12695,-0.0459 7.23453,-6.471 15.79461,-14.27799 z m -93.395899,25.05906 c -2.820954,-1.01463 -3.266899,-2.76604 -2.406473,-9.45119 0.766494,-5.95533 2.9047,-12.99558 5.530511,-18.20974 5.991456,-11.89745 16.324865,-21.65281 28.370745,-26.78369 1.789526,-0.76224 3.22293,-1.46448 3.185343,-1.56054 -0.03759,-0.0961 -1.369888,-1.043 -2.960666,-2.10431 -8.908359,-5.94336 -14.664703,-15.08554 -16.315614,-25.91234 -0.393713,-2.582 -0.149861,-9.56459 0.424344,-12.15096 3.362414,-15.145138 14.876045,-26.327 30.160677,-29.291583 3.339042,-0.647636 9.975062,-0.640104 13.361462,0.01516 11.86275,2.295441 21.50648,9.564621 26.86349,20.248953 3.95343,7.88495 4.92633,16.92058 2.7455,25.49832 -2.24601,8.83412 -8.49609,17.35046 -16.32344,22.24229 -0.62383,0.38987 -1.06556,0.81998 -0.98162,0.95579 0.0839,0.13581 1.13012,0.55501 2.32486,0.93155 2.572,0.8106 3.21499,1.19318 3.90368,2.32267 1.50526,2.46869 -0.37768,6.00093 -3.20051,6.0039 -0.51695,5.3e-4 -2.42195,-0.4188 -4.23334,-0.93187 -4.57838,-1.29683 -7.3065,-1.69855 -12.81842,-1.88752 -9.73264,-0.33369 -17.311939,1.12728 -24.890786,4.79787 -14.941656,7.23656 -24.822152,21.74082 -26.319395,38.63605 -0.365542,4.12486 -0.383592,4.19657 -1.326652,5.27066 -1.190117,1.35547 -3.438269,1.95595 -5.093696,1.36053 z m 57.837199,-60.3389 c 2.59548,-0.45261 5.33594,-1.38411 7.99542,-2.71768 7.94144,-3.98217 13.74268,-11.67669 15.50741,-20.56835 0.45993,-2.31738 0.46594,-8.70676 0.0102,-10.84792 -2.43628,-11.446298 -10.44717,-19.928537 -21.64798,-22.921717 -2.65237,-0.70879 -8.74667,-0.969744 -11.67843,-0.500063 -11.101258,1.778475 -20.318714,9.940171 -23.457202,20.77043 -3.339586,11.52421 0.870935,24.11461 10.487925,31.36123 3.537047,2.66525 8.520675,4.81015 12.897357,5.55088 2.09961,0.35536 7.51901,0.28583 9.88529,-0.12681 z"
         id="path29"
         inkscape:connector-curvature="0" />
      <path
         style="fill:#4e4e4e;stroke-width:0.26458332"
         d="m 144.97277,211.45287 c -4.55098,-0.70626 -10.44297,-3.15613 -13.90414,-5.7813 -10.47982,-7.94856 -14.71581,-21.5623 -10.56461,-33.9528 5.38157,-16.06292 22.84685,-24.58777 38.82898,-18.95253 4.67716,1.64915 7.85208,3.7049 11.56893,7.49086 3.93574,4.00891 6.3724,8.30325 7.83784,13.81327 0.78547,2.95339 0.98493,9.41208 0.38844,12.57829 -2.33558,12.39741 -11.45051,21.76911 -23.77708,24.44688 -2.29274,0.49807 -8.16798,0.70035 -10.37836,0.35733 z m 9.60911,-7.92853 c 6.7889,-1.62753 12.35861,-6.2438 15.37041,-12.73926 1.60041,-3.45155 1.99294,-5.33946 1.97184,-9.4836 -0.0142,-2.79518 -0.14297,-4.03214 -0.59208,-5.68854 -0.72066,-2.658 -2.39299,-6.08542 -2.96923,-6.08542 -0.45214,0 -32.78276,29.34999 -32.78276,29.76044 0,0.55758 4.21238,2.9745 6.48229,3.71932 3.58031,1.17479 8.86542,1.39307 12.51953,0.51706 z m -7.7808,-25.15085 c 10.06339,-9.17709 16.02128,-14.79029 15.97268,-15.04859 -0.11839,-0.62915 -3.85814,-2.75068 -6.23151,-3.53509 -3.00355,-0.99268 -5.57333,-1.33514 -8.65906,-1.15394 -8.3228,0.48874 -15.4933,5.2753 -19.09077,12.74374 -1.71189,3.55394 -2.25645,5.94842 -2.25645,9.92187 0,3.91384 0.54129,6.34689 2.16993,9.75369 0.85847,1.79574 1.15103,2.18873 1.55148,2.08401 0.27143,-0.071 7.71609,-6.71554 16.5437,-14.76569 z m -94.855752,25.11762 c -1.606335,-0.93161 -1.966751,-1.82797 -1.900741,-4.72713 0.106214,-4.66496 1.253761,-10.48324 3.131751,-15.87857 5.18928,-14.90842 16.679709,-27.18878 31.20685,-33.35224 1.60073,-0.67915 2.942458,-1.39934 2.981619,-1.60044 0.03985,-0.2046 -0.520525,-0.69665 -1.272405,-1.11728 -3.763981,-2.10568 -9.19385,-7.19822 -11.76338,-11.03257 -2.84084,-4.23921 -4.840362,-9.06732 -5.861981,-14.15454 -0.705229,-3.51173 -0.645179,-9.94639 0.126303,-13.534 3.320913,-15.443187 15.189661,-26.961872 30.454698,-29.556449 3.239538,-0.55062 9.207368,-0.553461 12.474458,-0.0059 7.68222,1.287443 14.59234,4.889047 20.23029,10.544166 11.50293,11.537963 14.18834,28.300623 6.84472,42.725583 -0.78423,1.54046 -2.18728,3.81286 -3.11787,5.04978 -2.19642,2.91942 -6.33935,6.90303 -9.0849,8.73553 -1.19563,0.79801 -2.1779,1.58994 -2.18282,1.75984 -0.005,0.1699 1.11253,0.68253 2.48321,1.13917 2.76542,0.9213 3.69053,1.63625 4.16458,3.21848 0.41818,1.39575 -0.0415,2.85099 -1.23038,3.89481 -1.44145,1.2656 -2.18631,1.27404 -6.4253,0.0728 -5.58873,-1.58376 -7.12415,-1.75626 -15.53751,-1.74551 -7.01369,0.009 -7.58533,0.0472 -10.731065,0.71887 -21.466864,4.58319 -36.244545,21.48397 -38.055553,43.52297 -0.287012,3.49277 -0.685102,4.37128 -2.389153,5.27241 -1.481369,0.78336 -3.24772,0.80291 -4.545421,0.0503 z m 56.779522,-59.5246 c 3.44637,-0.42234 6.47673,-1.35627 9.78959,-3.01706 8.06106,-4.04114 13.65081,-11.35165 15.48969,-20.25805 0.79906,-3.87016 0.62769,-9.78101 -0.3898,-13.445 -3.12407,-11.249792 -12.49292,-19.613092 -23.89688,-21.332054 -6.20667,-0.935554 -11.662942,-0.0616 -17.396762,2.786525 -6.944907,3.449697 -12.010784,9.102251 -14.566865,16.253849 -5.726119,16.02099 3.244302,33.45196 19.608715,38.10289 3.987682,1.13334 7.341582,1.40163 11.362312,0.9089 z"
         id="path27"
         inkscape:connector-curvature="0" />
      <path
         style="fill:#2e2e2e;stroke-width:0.26458332"
         d="m 144.28998,211.19662 c -4.70887,-0.79696 -10.3179,-3.33367 -14.05631,-6.35702 -10.88606,-8.80386 -14.28267,-24.06381 -8.15825,-36.65256 5.31539,-10.92578 16.28705,-17.46553 28.4536,-16.96 8.66897,0.36019 16.44422,4.16881 21.85396,10.70489 5.69247,6.8777 8.03775,15.23072 6.72382,23.94776 -1.91128,12.68011 -11.65766,22.79013 -24.2784,25.18424 -2.23428,0.42384 -8.36228,0.50099 -10.53842,0.13269 z m 10.86925,-7.66573 c 6.40827,-1.79286 11.67217,-6.14238 14.57469,-12.04295 1.91526,-3.89358 2.22635,-5.31692 2.22635,-10.18646 0,-3.5499 -0.0828,-4.36772 -0.61628,-6.08542 -0.9374,-3.01839 -2.3499,-5.82083 -2.93385,-5.82083 -0.62482,0 -32.67076,29.17918 -32.77663,29.8445 -0.19005,1.19437 5.7748,4.02071 10.17528,4.82139 2.09259,0.38075 7.11157,0.0961 9.35044,-0.53023 z m -8.59896,-24.77698 c 8.87677,-8.09212 16.22118,-14.85312 16.32091,-15.02445 0.25333,-0.43522 0.008,-0.72239 -1.48241,-1.73707 -5.81636,-3.95913 -14.76629,-4.64416 -21.39687,-1.63771 -9.90382,4.49061 -15.34915,15.08473 -13.17317,25.62895 0.54437,2.63789 2.64758,7.49064 3.24444,7.48595 0.19114,-0.002 7.61033,-6.62356 16.4871,-14.71567 z m -94.252343,24.79294 c -0.616045,-0.2856 -1.368598,-0.91219 -1.674296,-1.39405 -0.50989,-0.80373 -0.543078,-1.13482 -0.405982,-4.05028 0.607824,-12.92589 6.326375,-25.93362 15.628618,-35.54973 5.629187,-5.81912 11.28525,-9.76098 18.461691,-12.86645 1.770208,-0.76602 3.259299,-1.51498 3.309088,-1.66435 0.04979,-0.14937 -0.957363,-0.95364 -2.238123,-1.78727 -8.501084,-5.53321 -13.966429,-13.10879 -16.392981,-22.7225 -0.543277,-2.1524 -0.699367,-3.5373 -0.807663,-7.16594 -0.206119,-6.90639 0.768702,-11.43798 3.756479,-17.462503 2.037329,-4.108053 4.229939,-7.096076 7.579437,-10.329038 5.223907,-5.042156 11.659176,-8.37938 18.94279,-9.823417 3.568545,-0.707494 10.717435,-0.635888 14.347445,0.143708 13.22703,2.840691 23.64688,12.143106 27.89502,24.90354 1.31546,3.95133 1.81184,7.12128 1.80224,11.50937 -0.0269,12.29964 -6.02808,23.31582 -16.64931,30.56257 -0.96235,0.6566 -1.79304,1.32377 -1.84598,1.48259 -0.0529,0.15882 0.83058,0.61202 1.96339,1.00711 1.13281,0.39509 2.44741,0.88725 2.92135,1.09369 2.43281,1.05966 2.58688,5.05337 0.24993,6.47829 -1.16214,0.7086 -2.51888,0.64656 -5.49678,-0.25138 -4.88352,-1.47254 -9.75431,-2.12726 -15.89359,-2.13639 -17.148352,-0.0255 -31.990458,7.63173 -41.019472,21.16248 -4.569598,6.84793 -7.174288,14.40918 -7.943674,23.06 -0.241416,2.71443 -0.426565,3.6396 -0.85586,4.27663 -1.170745,1.73726 -3.69816,2.42066 -5.633767,1.52332 z m 60.326763,-60.16682 c 4.81384,-1.26705 9.18415,-3.70367 12.83592,-7.15654 10.25023,-9.69192 12.20142,-24.83554 4.76251,-36.962731 -1.57234,-2.563277 -6.0806,-7.252544 -8.45546,-8.794935 -5.2088,-3.382946 -10.41509,-4.943505 -16.49239,-4.943505 -7.787533,0 -14.550415,2.693617 -20.176851,8.036326 -11.833235,11.236515 -12.372084,29.574865 -1.217916,41.448585 4.277097,4.55302 10.003347,7.69046 16.144187,8.8455 3.27897,0.61674 9.32232,0.39002 12.6,-0.4727 z"
         id="path25"
         inkscape:connector-curvature="0" />
      <path
         style="fill:#010101;stroke-width:0.26458332"
         d="m 145.53759,211.18207 c -18.41182,-2.54992 -30.17181,-20.3062 -25.16589,-37.99769 0.82518,-2.91627 3.13155,-7.60763 4.86119,-9.88808 2.81229,-3.70787 7.19951,-7.26381 11.26598,-9.13133 4.65943,-2.13983 8.68952,-2.90653 14.13235,-2.6886 4.37695,0.17525 7.63498,0.94747 11.27777,2.67307 11.18204,5.29699 17.77358,16.2163 17.25353,28.58161 -0.57999,13.79074 -10.32921,25.19504 -23.99624,28.06999 -2.42953,0.51107 -7.29853,0.70375 -9.62869,0.38103 z m 6.45358,-6.87794 c 10.31367,-1.29121 18.46148,-9.1592 20.11785,-19.42697 0.39288,-2.43547 0.18356,-6.98513 -0.42624,-9.26422 -0.23361,-0.87313 -0.9438,-2.68883 -1.5782,-4.0349 -0.87915,-1.86537 -1.27712,-2.44739 -1.67346,-2.44739 -0.69066,0 -33.11564,29.54803 -33.11564,30.17741 0,0.94091 4.66171,3.50187 7.90358,4.34192 3.48725,0.90364 5.55036,1.05749 8.77211,0.65415 z m -5.29861,-25.40506 c 8.94953,-8.15963 16.36716,-15.00538 16.48363,-15.21277 0.3121,-0.55579 -0.81164,-1.47737 -3.48511,-2.85817 -3.25525,-1.68127 -5.61489,-2.29842 -9.44403,-2.47002 -5.09789,-0.22846 -9.33498,0.88487 -13.41675,3.52535 -4.95115,3.20289 -8.4755,8.05434 -10.03177,13.80926 -0.79,2.92133 -0.78025,8.33046 0.0204,11.2973 0.85154,3.15552 2.59681,6.74804 3.27716,6.74581 0.17855,-5.3e-4 7.64697,-6.67712 16.59651,-14.83676 z m -94.384888,24.49972 c -0.470077,-0.20435 -1.09471,-0.76524 -1.388074,-1.24641 -1.050256,-1.72262 -0.553703,-7.86523 1.18421,-14.64927 4.405532,-17.19722 17.010953,-31.5117 33.668443,-38.23326 1.432848,-0.57817 2.182812,-1.02348 2.182812,-1.2961 0,-0.22842 -0.684609,-0.81722 -1.521354,-1.30846 C 77.399985,141.3618 71.10819,132.51152 68.864915,121.95238 68.060173,118.16444 68.05816,112.15597 68.860415,108.38124 70.53431,100.50486 73.62,94.790149 79.207352,89.218662 84.571786,83.86946 90.508428,80.646109 98.016382,79.00614 c 3.187628,-0.696275 11.345698,-0.696468 14.544978,-3.44e-4 5.40101,1.175193 10.76077,3.572761 14.85341,6.644334 2.84654,2.136365 6.83574,6.292573 8.64552,9.007473 2.74869,4.123385 4.80054,9.120197 5.7803,14.076637 0.6776,3.42789 0.61854,9.95737 -0.12075,13.34893 -1.16217,5.33153 -3.46392,10.51241 -6.48397,14.59443 -2.69282,3.63972 -7.35275,7.85501 -11.17934,10.11265 -0.90348,0.53304 -0.20274,1.1019 2.44248,1.9828 2.81388,0.93706 3.86132,1.73318 4.14473,3.15024 0.3755,1.87748 -0.73017,3.69155 -2.5575,4.1961 -0.80113,0.22121 -1.42249,0.15274 -3.38815,-0.3733 -1.32391,-0.3543 -2.49027,-0.69558 -2.59192,-0.75841 -0.70457,-0.43545 -6.3005,-1.25104 -10.06485,-1.46692 -12.778719,-0.73286 -23.130476,1.80459 -32.322441,7.92296 -8.29015,5.5181 -14.417056,13.22169 -18.09982,22.75758 -1.656198,4.28844 -2.229141,7.01765 -3.268084,15.5675 -0.264194,2.17416 -0.655465,2.77951 -2.278154,3.52465 -1.258585,0.57795 -2.592152,0.61526 -3.765101,0.10534 z m 60.008578,-59.75521 c 5.7012,-1.46869 9.62125,-3.70105 13.75676,-7.83413 3.86997,-3.86769 5.82832,-7.00006 7.37124,-11.79026 1.12702,-3.49894 1.42037,-5.42438 1.41089,-9.26041 -0.02,-8.10934 -3.01494,-15.241182 -8.81949,-21.002214 -7.90057,-7.841325 -19.91501,-10.547906 -30.40767,-6.850161 -4.390499,1.547266 -7.453151,3.442011 -10.838108,6.70512 -4.516382,4.353804 -7.46125,9.757045 -8.605594,15.789535 -0.523306,2.75865 -0.517327,8.25289 0.01201,11.04338 2.047298,10.79248 10.342528,19.87936 20.88689,22.88022 3.472582,0.98827 5.137952,1.18381 9.128122,1.07176 2.68197,-0.0753 4.20297,-0.26288 6.10494,-0.75284 z"
         id="path23"
         inkscape:connector-curvature="0" />
    </g>
  </g>
</svg>
